# xmcd
#
# Track frame offsets: 
#        150
#        12452
#        26822
#        39102
#        65665
#        85420
#        99840
#        115910
#        134790
#        154040
#        174152
#        185960
#        199685
#        213557
#        226055
#        239925
#        254970
#        273305
#        285600
#        299250
#        323060
#        339600
#
# Disc length: 4712 seconds
#
# Revision: 2
# Processed by: cddbd v1.5.2PL0 Copyright (c) Steve Scherf et al.
# Submitted via: ExactAudioCopy v0.99pb4
#
DISCID=55126616
DTITLE=David Allan Coe - Castles In The Sand, Once Upon A Rhyme
DYEAR=1999
DGENRE=Country
TTITLE0=Cheap Thrills
TTITLE1=Son Of A Rebal Son
TTITLE2=Fool Inside Of Me
TTITLE3=Castles In The Sand
TTITLE4=Gotta Serve Somebody
TTITLE5=The Ride
TTITLE6=I Can't Let You Be A Memory
TTITLE7=Missin The Kid
TTITLE8=Don't Be A Stranger
TTITLE9=For Lovers Only (Part 1)
TTITLE10=Would You Lay With Me (In A Field Of Stone)
TTITLE11=Jody Like A Melody
TTITLE12=Loneliness In Ruby's Eyes
TTITLE13=Would You Be My Lady
TTITLE14=Sweet Vibrations (Some Folks Call It Love)
TTITLE15=Another Pretty Country Song
TTITLE16=Piece Of Wood And Steel
TTITLE17=Fraulein
TTITLE18=Shine It On
TTITLE19=You Never Even Called Me By My Name
TTITLE20=Mona Lisa Lost Her Smile
TTITLE21=She Used To Love Me A Lot
EXTD=
EXTT0=
EXTT1=
EXTT2=
EXTT3=
EXTT4=
EXTT5=
EXTT6=
EXTT7=
EXTT8=
EXTT9=
EXTT10=
EXTT11=
EXTT12=
EXTT13=
EXTT14=
EXTT15=
EXTT16=
EXTT17=
EXTT18=
EXTT19=
EXTT20=
EXTT21=
PLAYORDER=
